custom-analysis
version=1
nRows=4
nColumns=98
inDegrees=no

This file contains tibia displacement and acting force.

Units are S.I. units (seconds, meters, Newtons, ...)
Angles are in degrees.

endheader
time	APT	SIT	knee_angle	aACL_R_force	pACL_R_force	aPCL_R_force	pPCL_R_force	aMCL_R_force	mMCL_R_force	pMCL_R_force	aLCL_R_force	mLCL_R_force	pLCL_R_force	aPCL_L_force	pPCL_L_force	aMCL_L_force	aLCL_L_force	aACL_R_length	pACL_R_length	aPCL_R_length	pPCL_R_length	aMCL_R_length	mMCL_R_length	pMCL_R_length	aLCL_R_length	mLCL_R_length	pLCL_R_length	aPCL_L_length	pPCL_L_length	aMCL_L_length	aLCL_L_length	aACL_R_strain	pACL_R_strain	aPCL_R_strain	pPCL_R_strain	aMCL_R_strain	mMCL_R_strain	pMCL_R_strain	aLCL_R_strain	mLCL_R_strain	pLCL_R_strain	aPCL_L_strain	pPCL_L_strain	aMCL_L_strain	aLCL_L_strain	femur_lat_meniscii_r.femur_lat_r.force.X	femur_lat_meniscii_r.femur_lat_r.force.Y	femur_lat_meniscii_r.femur_lat_r.force.Z	femur_lat_meniscii_r.femur_lat_r.torque.X	femur_lat_meniscii_r.femur_lat_r.torque.Y	femur_lat_meniscii_r.femur_lat_r.torque.Z	femur_lat_meniscii_r.meniscus_lat_r.force.X	femur_lat_meniscii_r.meniscus_lat_r.force.Y	femur_lat_meniscii_r.meniscus_lat_r.force.Z	femur_lat_meniscii_r.meniscus_lat_r.torque.X	femur_lat_meniscii_r.meniscus_lat_r.torque.Y	femur_lat_meniscii_r.meniscus_lat_r.torque.Z	femur_med_meniscii_r.femur_med_r.force.X	femur_med_meniscii_r.femur_med_r.force.Y	femur_med_meniscii_r.femur_med_r.force.Z	femur_med_meniscii_r.femur_med_r.torque.X	femur_med_meniscii_r.femur_med_r.torque.Y	femur_med_meniscii_r.femur_med_r.torque.Z	femur_med_meniscii_r.meniscus_med_r.force.X	femur_med_meniscii_r.meniscus_med_r.force.Y	femur_med_meniscii_r.meniscus_med_r.force.Z	femur_med_meniscii_r.meniscus_med_r.torque.X	femur_med_meniscii_r.meniscus_med_r.torque.Y	femur_med_meniscii_r.meniscus_med_r.torque.Z	femur_med_tibia_r.tibia_upper_r.force.X	femur_med_tibia_r.tibia_upper_r.force.Y	femur_med_tibia_r.tibia_upper_r.force.Z	femur_med_tibia_r.tibia_upper_r.torque.X	femur_med_tibia_r.tibia_upper_r.torque.Y	femur_med_tibia_r.tibia_upper_r.torque.Z	femur_med_tibia_r.femur_med_r.force.X	femur_med_tibia_r.femur_med_r.force.Y	femur_med_tibia_r.femur_med_r.force.Z	femur_med_tibia_r.femur_med_r.torque.X	femur_med_tibia_r.femur_med_r.torque.Y	femur_med_tibia_r.femur_med_r.torque.Z	femur_lat_tibia_r.tibia_upper_r.force.X	femur_lat_tibia_r.tibia_upper_r.force.Y	femur_lat_tibia_r.tibia_upper_r.force.Z	femur_lat_tibia_r.tibia_upper_r.torque.X	femur_lat_tibia_r.tibia_upper_r.torque.Y	femur_lat_tibia_r.tibia_upper_r.torque.Z	femur_lat_tibia_r.femur_lat_r.force.X	femur_lat_tibia_r.femur_lat_r.force.Y	femur_lat_tibia_r.femur_lat_r.force.Z	femur_lat_tibia_r.femur_lat_r.torque.X	femur_lat_tibia_r.femur_lat_r.torque.Y	femur_lat_tibia_r.femur_lat_r.torque.Z	femur_lat_meniscii_force_r	femur_med_meniscii_force_r	femur_lat_tibia_force_r	femur_med_tibia_force_r
      0.10662616	      0.00892112	      0.00745241	     27.70674204	     24.27143182	     -6.64721362	      0.00000000	      0.00000000	      0.00000000	      0.00000000	    -31.17609153	      0.00000000	      0.00000000	      0.00000000	      0.00000000	      0.00000000	      0.00000001	      0.00000000	      0.03319829	      0.02606463	      0.03023839	      0.02963295	      0.05724586	      0.05966305	      0.05909142	      0.05290505	      0.04998264	      0.04648814	      0.01525851	      0.01651186	      0.06550154	      0.04489616	      0.07072265	      0.04014313	     -0.02755758	     -0.00852687	     -0.04633150	     -0.00218167	      0.00618813	     -0.05488209	     -0.11250213	     -0.11185046	      0.00000079	     -0.32847694	      0.00000060	     -0.00000086	      8.36497833	    158.51076350	     24.75383649	    -13.99170164	      0.25288585	      2.94419512	     -8.36497833	   -158.51076350	    -24.75383649	      4.86903421	     -0.53446598	      1.94168986	    -13.96767414	     22.51703480	      0.60862066	      0.28901091	      0.33416410	     -5.72873159	     13.96767414	    -22.51703480	     -0.60862066	     -0.47241749	     -0.30996051	      0.62414569	    -54.33152993	   -490.27947280	    125.17163583	    -11.95523393	      1.88959097	      2.21177484	     54.33152993	    490.27947280	   -125.17163583	     60.92244146	     -0.67795178	     23.78856541	    -59.99190333	   -326.14250291	    -80.15364569	     11.04047122	     -2.38520028	      1.43460382	     59.99190333	    326.14250291	     80.15364569	    -40.99087831	      1.40116938	     24.98610616	    160.64989084	     26.50439957	    341.16354962	    508.91434939
      0.10743135	      0.00894172	      0.00755575	     28.06468879	     22.94347979	     -7.83741365	      0.00000000	      0.00000000	      0.00000000	      0.00000000	    -31.03507027	      0.00000000	      0.00000000	      0.00000000	      0.00000000	      0.00000000	      0.00000001	      0.00000000	      0.03317065	      0.02602700	      0.03031434	      0.02969152	      0.05728102	      0.05966568	      0.05905667	      0.05290190	      0.04995672	      0.04643982	      0.01525851	      0.01651186	      0.06550154	      0.04489616	      0.06983116	      0.03864127	     -0.02511491	     -0.00656734	     -0.04574574	     -0.00213762	      0.00559654	     -0.05493850	     -0.11296228	     -0.11277369	      0.00000079	     -0.32847694	      0.00000060	     -0.00000086	      9.63731781	    159.97478153	     24.43302589	    -13.89883547	      0.29656151	      3.47294119	     -9.63731781	   -159.97478153	    -24.43302589	      4.89707163	     -0.57936995	      1.92938095	    -14.49740194	     23.25325114	      0.89065163	      0.18961930	      0.34377356	     -5.95236388	     14.49740194	    -23.25325114	     -0.89065163	     -0.48006419	     -0.32195541	      0.65507467	    -56.28665105	   -491.43107097	    124.87326414	    -11.97053132	      1.92483675	      2.19334225	     56.28665105	    491.43107097	   -124.87326414	     60.80938548	     -0.70780232	     24.61034626	    -58.76477106	   -316.85424168	    -77.91783491	     10.71156298	     -2.34005904	      1.43816927	     58.76477106	    316.85424168	     77.91783491	    -39.83678180	      1.37752326	     24.44191792	    162.11656724	     27.41681258	    331.54350814	    510.16273551
      0.10823654	      0.00896293	      0.00766011	     28.42444311	     21.49666049	     -9.10630219	      0.00000000	      0.00000000	      0.00000000	      0.00000000	    -30.85145496	      0.00000000	      0.00000000	      0.00000000	      0.00000000	      0.00000000	      0.00000001	      0.00000000	      0.03314209	      0.02598864	      0.03039089	      0.02975025	      0.05731674	      0.05966858	      0.05902222	      0.05289881	      0.04993057	      0.04639114	      0.01525851	      0.01651186	      0.06550154	      0.04489616	      0.06890988	      0.03711046	     -0.02265332	     -0.00460232	     -0.04515076	     -0.00208918	      0.00500988	     -0.05499370	     -0.11342674	     -0.11370379	      0.00000079	     -0.32847694	      0.00000060	     -0.00000086	      7.78766113	    160.11502810	     24.74121914	    -14.03082565	      0.24766438	      2.67468717	     -7.78766113	   -160.11502810	    -24.74121914	      4.90643667	     -0.53174502	      2.03580141	    -14.90245016	     24.00100048	      1.21643203	      0.07186140	      0.34964120	     -6.12392902	     14.90245016	    -24.00100048	     -1.21643203	     -0.48609469	     -0.33102774	      0.68192122	    -58.16871345	   -491.54148123	    123.06362049	    -11.90615864	      1.95060506	      2.16752978	     58.16871345	    491.54148123	   -123.06362049	     60.03644114	     -0.74413087	     25.40120830	    -57.48081611	   -308.31308011	    -75.74352543	     10.40363203	     -2.29556960	      1.45082512	     57.48081611	    308.31308011	     75.74352543	    -38.72496640	      1.35417413	     23.87382065	    162.20233603	     28.27738941	    322.64234259	    510.04047063
      0.10904173	      0.00898495	      0.00776559	     28.78598999	     20.27067349	    -10.10517159	      0.00000000	      0.00000000	      0.00000000	      0.00000000	    -30.83602084	      0.00000000	      0.00000000	      0.00000000	      0.00000000	      0.00000000	      0.00000001	      0.00000000	      0.03311274	      0.02594972	      0.03046777	      0.02980887	      0.05735283	      0.05967156	      0.05898788	      0.05289560	      0.04990398	      0.04634190	      0.01525851	      0.01651186	      0.06550154	      0.04489616	      0.06796327	      0.03555724	     -0.02018081	     -0.00264077	     -0.04454941	     -0.00203935	      0.00442507	     -0.05505100	     -0.11389884	     -0.11464446	      0.00000079	     -0.32847694	      0.00000060	     -0.00000086	      6.54451884	    160.02927229	     24.63636883	    -13.98583610	      0.21161525	      2.13170220	     -6.54451884	   -160.02927229	    -24.63636883	      4.89647677	     -0.49395743	      2.11683367	    -14.85821681	     25.08193194	      1.51253175	     -0.02696138	      0.34951994	     -6.09897606	     14.85821681	    -25.08193194	     -1.51253175	     -0.49903091	     -0.33480567	      0.68793601	    -59.67689549	   -491.10806153	    123.27590964	    -11.92423605	      1.98912300	      2.15970495	     59.67689549	    491.10806153	   -123.27590964	     60.11886127	     -0.77044027	     26.02593600	    -56.12887399	   -301.27175690	    -74.55558936	     10.17032964	     -2.26129837	      1.48307644	     56.12887399	    301.27175690	     74.55558936	    -38.06128306	      1.33057757	     23.27546571	    162.04675062	     29.19173974	    315.39444812	    509.84841851
